<svg width="36" height="37" viewBox="0 0 36 37" fill="none" xmlns="http://www.w3.org/2000/svg">
<circle cx="18" cy="18.5" r="18" fill="#FFE1DF"/>
<g clip-path="url(#clip0_0_1232)">
<path d="M18.0026 13.8333C19.7707 13.8333 21.4664 14.5357 22.7167 15.7859C23.9669 17.0361 24.6693 18.7318 24.6693 20.4999C24.6693 22.268 23.9669 23.9637 22.7167 25.214C21.4664 26.4642 19.7707 27.1666 18.0026 27.1666C16.2345 27.1666 14.5388 26.4642 13.2886 25.214C12.0383 23.9637 11.3359 22.268 11.3359 20.4999C11.3359 18.7318 12.0383 17.0361 13.2886 15.7859C14.5388 14.5357 16.2345 13.8333 18.0026 13.8333ZM18.0026 16.7499L16.9001 18.9833L14.4359 19.3416L16.2193 21.0791L15.7984 23.5341L18.0026 22.3749L20.2068 23.5333L19.7859 21.0791L21.5693 19.3408L19.1051 18.9824L18.0026 16.7499ZM18.8359 9.66577L23.0026 9.6666V12.1666L21.8668 13.1149C20.9242 12.6204 19.8952 12.3123 18.8359 12.2074V9.6666V9.66577ZM17.1693 9.66577V12.2074C16.1104 12.3121 15.0816 12.62 14.1393 13.1141L13.0026 12.1666V9.6666L17.1693 9.66577Z" fill="#FF7169"/>
</g>
<defs>
<clipPath id="clip0_0_1232">
<rect width="20" height="20" fill="white" transform="translate(8 8)"/>
</clipPath>
</defs>
</svg>
